<svg height="512" viewBox="0 0 60 60" width="512" xmlns="http://www.w3.org/2000/svg"><g id="038---Global-Language"><path id="Shape" d="m57 40h-3c3.6182867-8.6843951 2.2628663-18.6459864-3.5442015-26.047924-5.8070679-7.40193758-15.1597775-11.08938769-24.4557985-9.642076v-1.31c0-1.65685425-1.3431458-3-3-3h-20c-1.65685425 0-3 1.34314575-3 3v14c0 1.6568542 1.34314575 3 3 3h3c-3.61828673 8.6843951-2.26286635 18.6459864 3.54420153 26.047924 5.80706787 7.4019376 15.15977747 11.0893877 24.45579847 9.642076v1.31c0 1.6568542 1.3431458 3 3 3h20c1.6568542 0 3-1.3431458 3-3v-14c0-1.6568542-1.3431458-3-3-3zm-5.08 0h-8.63l-4.67-2.91c.47-.09-.62-.09 14.32-.09-.75 2.47-1.02 2.51-1.02 3zm1.88-13h-11c-.6603907-.0026468-1.2926815-.2675272-1.7577729-.7363693-.4650913-.4688421-.7248846-1.10324-.7222271-1.7636307.0000118-1.1969475-.4768384-2.3445815-1.3250827-3.1890725s-1.9979816-1.3162473-3.1949173-1.3109275h-1.16c-1.3807119 0-2.5-1.1192881-2.5-2.5s1.1192881-2.5 2.5-2.5h5.8c2.2227759-.008353 4.101709-1.6486915 4.41-3.85 4.9664981 3.8879963 8.1857482 9.5891264 8.95 15.85zm-51.8-10v-14c0-.55228475.44771525-1 1-1h20c.5522847 0 1 .44771525 1 1v19.2l-6.47-4.05c-.35-.22.7-.15-14.53-.15-.26521649 0-.5195704-.1053568-.70710678-.2928932s-.29289322-.4418903-.29289322-.7071068zm6.08 3h8.63l4.65 2.91c-.47.13-.25.09-5.28.09-2.4852814 0-4.5 2.0147186-4.5 4.5s2.0147186 4.5 4.5 4.5h9.28c1.3807119 0 2.5 1.1192881 2.5 2.5s-1.1192881 2.5-2.5 2.5h-18.3c-2.9-9.49 1.02-16.35 1.02-17zm-.32 19h17.6c2.4852814 0 4.5-2.0147186 4.5-4.5s-2.0147186-4.5-4.5-4.5h-9.28c-1.3807119 0-2.5-1.1192881-2.5-2.5s1.1192881-2.5 2.5-2.5h4.64c.9388436.0219513 1.8543704-.29387 2.58-.89 1.23.78 1.33.89 1.7.89.5522847 0 1-.4477153 1-1v-17.66c5.9039011-1.01478233 11.9734287.23125597 17 3.49-.0398192.2211135-.0598983.4453297-.06.67.0026715.6638566-.2598627 1.3012947-.729284 1.770716s-1.1068594.7319555-1.770716.729284h-5.8c-2.4852814 0-4.5 2.0147186-4.5 4.5s2.0147186 4.5 4.5 4.5h1.16c1.372895.0109835 2.4800439 1.127061 2.48 2.5-.0000245 2.4774918 2.0025327 4.4889889 4.48 4.5h11.24c.1050853 2.013403-.0631112 4.0317615-.5 6h-14.26c-.9266339-.0239112-1.8312114.2847094-2.55.87l-1.16-.72c-.3085729-.1928596-.6975525-.2028789-1.0156449-.0261609s-.5150842.512277-.5143551.8761609v5.28c-.454779.4591717-1.0737341.7182692-1.72.72h-6.28c-2.4852813.1270256-4.3970253 2.2447187-4.2699998 4.73s2.2447185 4.3970254 4.7299998 4.27h1.16c.6603907.0026468 1.2926815.2675272 1.7577729.7363693.4650913.4688421.7248846 1.10324.7222271 1.7636307v.5c-9.8129653.0373444-18.6601824-5.9030431-22.34-15zm24.36 14.9v-.4c.0000245-2.4774918-2.0025327-4.4889889-4.48-4.5h-1.16c-1.3807119.0745584-2.5604416-.9842881-2.635-2.365s.9842881-2.5604416 2.365-2.635h6.07c.591104.0008613 1.1762385-.1182068 1.72-.35v10c-.59.11-1.21.2-1.88.25zm25.88 3.1c0 .5522847-.4477153 1-1 1h-20c-.5522847 0-1-.4477153-1-1v-19.2c7.12 4.46 6.6 4.2 7 4.2h14c.5522847 0 1 .4477153 1 1z"/><path id="Shape" d="m6 6h1c.55228475 0 1-.44771525 1-1s-.44771525-1-1-1h-1c-.55228475 0-1 .44771525-1 1s.44771525 1 1 1z"/><path id="Shape" d="m11 6h9c.5522847 0 1-.44771525 1-1s-.4477153-1-1-1h-9c-.5522847 0-1 .44771525-1 1s.4477153 1 1 1z"/><path id="Shape" d="m6 11h10c.5522847 0 1-.4477153 1-1 0-.55228475-.4477153-1-1-1h-10c-.55228475 0-1 .44771525-1 1 0 .5522847.44771525 1 1 1z"/><path id="Shape" d="m21 15c0-.5522847-.4477153-1-1-1h-14c-.55228475 0-1 .4477153-1 1s.44771525 1 1 1h14c.5522847 0 1-.4477153 1-1z"/><path id="Shape" d="m55 49h-16c-.5522847 0-1 .4477153-1 1s.4477153 1 1 1h16c.5522847 0 1-.4477153 1-1s-.4477153-1-1-1z"/><path id="Shape" d="m41 53h-2c-.5522847 0-1 .4477153-1 1s.4477153 1 1 1h2c.5522847 0 1-.4477153 1-1s-.4477153-1-1-1z"/><path id="Shape" d="m55 53h-10c-.5522847 0-1 .4477153-1 1s.4477153 1 1 1h10c.5522847 0 1-.4477153 1-1s-.4477153-1-1-1z"/><path id="Shape" d="m39 47h10c.5522847 0 1-.4477153 1-1s-.4477153-1-1-1h-10c-.5522847 0-1 .4477153-1 1s.4477153 1 1 1z"/></g></svg>